# xmcd
#
# Track frame offsets:
# 150
# 15464
# 30865
# 45399
# 59338
# 73131
# 87014
# 101197
# 114817
# 128865
# 143655
# 157320
# 174975
# 186725
# 201475
# 217234
# 232512
# 248179
# 264480
# 276924
# 292641
# 309526
# 324663
#
# Disc length: 4528 seconds
#
#
# Revision: 0
# Processed by: cddbd v1.5.2PL0 Copyright (c) Steve Scherf et al.
# Submitted via: FreeRIP 2.945 
#
DISCID=4b11ae17
DTITLE=Fergus-J1998 - 1000White-Women06
DYEAR=1998
DGENRE=Native American
TTITLE0=0601
TTITLE1=0602
TTITLE2=0603
TTITLE3=0604
TTITLE4=0605
TTITLE5=0606
TTITLE6=0607
TTITLE7=0608
TTITLE8=0609
TTITLE9=0610
TTITLE10=0611
TTITLE11=0612
TTITLE12=0613
TTITLE13=0614
TTITLE14=0615
TTITLE15=0616
TTITLE16=0617
TTITLE17=0618
TTITLE18=0619
TTITLE19=0620
TTITLE20=0621
TTITLE21=0622
TTITLE22=0623
EXTD=One Thousand White Women\nby Jim Fergus - read by Laura Hicks\nFiction BBC Audio Books America
EXTT0=
EXTT1=
EXTT2=
EXTT3=
EXTT4=
EXTT5=
EXTT6=
EXTT7=
EXTT8=
EXTT9=
EXTT10=
EXTT11=
EXTT12=
EXTT13=
EXTT14=
EXTT15=
EXTT16=
EXTT17=
EXTT18=
EXTT19=
EXTT20=
EXTT21=
EXTT22=
PLAYORDER=
